<svg xmlns="http://www.w3.org/2000/svg" xml:space="preserve" width="512" height="512" viewBox="0 0 512 512"><path fill="#004281" d="M209.406 354.781c0 13.807 11.193 25 25 25h6.062l-77.656 15.531-62.125-15.531h6.062c13.807 0 25-11.193 25-25v-36.656h77.656z" data-original="#004281"/><path fill="#0055a3" d="M318.656 333.656H22.5c-8.284 0-15-6.716-15-15V115.687c0-8.284 6.716-15 15-15h296.156c8.284 0 15 6.716 15 15v202.969c0 8.285-6.715 15-15 15" data-original="#0055a3"/><path fill="#01c0fa" d="M38.562 131.75h264.031v170.844H38.562z" data-original="#01c0fa"/><path fill="#08a9f1" d="m103.487 131.75 3.173 9.519a71.7 71.7 0 0 0-5.169 12.469l-11.774 5.887a8.25 8.25 0 0 0-4.561 7.379v16.086a8.25 8.25 0 0 0 4.56 7.379l11.774 5.887a72 72 0 0 0 5.169 12.469l-4.165 12.494a8.25 8.25 0 0 0 1.993 8.443l11.375 11.375a8.25 8.25 0 0 0 8.443 1.993l12.494-4.165a72 72 0 0 0 12.469 5.17l5.887 11.774a8.25 8.25 0 0 0 7.379 4.561h16.086a8.25 8.25 0 0 0 7.379-4.561l5.887-11.774a72 72 0 0 0 12.469-5.17l12.494 4.165a8.25 8.25 0 0 0 8.443-1.993l11.375-11.375a8.25 8.25 0 0 0 1.993-8.443l-4.165-12.494a72 72 0 0 0 5.169-12.469l11.774-5.887a8.25 8.25 0 0 0 4.56-7.379v-16.086a8.25 8.25 0 0 0-4.56-7.379l-11.774-5.887a72 72 0 0 0-5.169-12.469l3.173-9.519z" data-original="#08a9f1"/><path fill="#08a9f1" d="M256.594 131.75v110.397c0 22.338-18.108 40.446-40.446 40.446H38.562v20h264.031V131.75z" data-original="#08a9f1"/><path fill="#ffc344" d="M150.312 271.531H82.125c-6.904 0-12.5-5.596-12.5-12.5v-83.719c0-6.904 5.596-12.5 12.5-12.5h68.188c6.904 0 12.5 5.596 12.5 12.5v83.719c-.001 6.904-5.597 12.5-12.501 12.5" data-original="#ffc344"/><path fill="#fd6930" d="M259.031 271.531h-52.656c-6.904 0-12.5-5.596-12.5-12.5v-37.125c0-6.904 5.596-12.5 12.5-12.5h52.656c6.904 0 12.5 5.596 12.5 12.5v37.125c0 6.904-5.596 12.5-12.5 12.5" data-original="#fd6930"/><path fill="#fd5426" d="M193.875 221.906v21.583a72 72 0 0 0 10.481-4.525l12.494 4.165a8.25 8.25 0 0 0 8.443-1.993l11.375-11.375a8.25 8.25 0 0 0 1.993-8.443l-3.971-11.913h-28.315c-6.904.001-12.5 5.598-12.5 12.501" data-original="#fd5426"/><path fill="#feb237" d="M150.312 162.812H86.3a8.25 8.25 0 0 0-1.144 4.191v16.086a8.25 8.25 0 0 0 4.56 7.379l11.774 5.887a72 72 0 0 0 5.169 12.469l-4.165 12.494a8.25 8.25 0 0 0 1.993 8.443l11.375 11.375a8.25 8.25 0 0 0 8.443 1.993l12.494-4.165a72 72 0 0 0 12.469 5.17l5.887 11.774a8.25 8.25 0 0 0 7.379 4.561h.195q.082-.708.083-1.438v-83.719c0-6.903-5.596-12.5-12.5-12.5" data-original="#feb237"/><path fill="#fd5426" d="M259.031 209.406h-2.438v32.741c0 11.573-4.862 22.011-12.653 29.384h15.091c6.904 0 12.5-5.596 12.5-12.5v-37.125c0-6.903-5.596-12.5-12.5-12.5" data-original="#fd5426"/><path fill="#80d261" d="M256 163.09v-16.086a8.25 8.25 0 0 0-4.561-7.379l-11.774-5.887a72 72 0 0 0-5.169-12.469l4.165-12.494a8.25 8.25 0 0 0-1.993-8.442l-11.375-11.375a8.25 8.25 0 0 0-8.443-1.993l-12.494 4.165a72 72 0 0 0-12.469-5.169L186 74.185a8.25 8.25 0 0 0-7.379-4.56h-16.086a8.25 8.25 0 0 0-7.379 4.56l-5.887 11.774a72 72 0 0 0-12.469 5.169l-12.494-4.165a8.25 8.25 0 0 0-8.443 1.993l-11.375 11.375a8.25 8.25 0 0 0-1.993 8.443l4.165 12.494a72 72 0 0 0-5.169 12.469l-11.774 5.887a8.25 8.25 0 0 0-4.561 7.379v16.086a8.25 8.25 0 0 0 4.56 7.379l11.774 5.887a72 72 0 0 0 5.169 12.469l-4.165 12.494a8.25 8.25 0 0 0 1.993 8.443l11.375 11.375a8.25 8.25 0 0 0 8.443 1.993l12.494-4.165a72 72 0 0 0 12.469 5.169l5.887 11.774a8.25 8.25 0 0 0 7.379 4.56h16.086a8.25 8.25 0 0 0 7.379-4.561l5.887-11.774a72 72 0 0 0 12.469-5.169l12.494 4.165a8.25 8.25 0 0 0 8.443-1.993l11.375-11.375a8.25 8.25 0 0 0 1.993-8.443l-4.165-12.494a72 72 0 0 0 5.169-12.469l11.774-5.887A8.24 8.24 0 0 0 256 163.09" data-original="#80d261"/><path fill="#68ca44" d="m251.44 139.625-11.774-5.887a72 72 0 0 0-5.169-12.469l4.165-12.494a8.25 8.25 0 0 0-1.993-8.443l-11.375-11.375a8.25 8.25 0 0 0-8.443-1.993l-12.494 4.165a72 72 0 0 0-7.203-3.32 21.1 21.1 0 0 1-1.003 8.496l-.001.003c-1.001 3.002-.893 6.283.403 9.17a72 72 0 0 1 1.593 3.844c1.124 2.951 3.368 5.34 6.193 6.752A21.1 21.1 0 0 1 216 134.941v.209c0 7.99-4.514 15.294-11.661 18.867-2.825 1.412-5.069 3.801-6.193 6.752a72 72 0 0 1-1.593 3.844c-1.296 2.887-1.404 6.168-.403 9.17l.001.003a21.09 21.09 0 0 1-5.096 21.587l-.148.148a21.09 21.09 0 0 1-21.587 5.096l-.003-.001c-3.002-1.001-6.283-.893-9.17.403a72 72 0 0 1-3.844 1.593c-2.951 1.124-5.34 3.368-6.752 6.193a21.1 21.1 0 0 1-12.042 10.527 72 72 0 0 0 11.761 4.8l5.887 11.774a8.25 8.25 0 0 0 7.379 4.561h16.086a8.25 8.25 0 0 0 7.379-4.561l5.887-11.774a72 72 0 0 0 12.469-5.17l12.494 4.165a8.25 8.25 0 0 0 8.443-1.993l11.375-11.375a8.25 8.25 0 0 0 1.993-8.443l-4.165-12.494a72 72 0 0 0 5.169-12.469l11.774-5.887a8.25 8.25 0 0 0 4.56-7.379v-16.086a8.25 8.25 0 0 0-4.56-7.376" data-original="#68ca44"/><path fill="#0055a3" d="M489.5 442.375H379.719c-8.284 0-15-6.716-15-15V287.062c0-8.284 6.716-15 15-15H489.5c8.284 0 15 6.716 15 15v140.312c0 8.285-6.716 15.001-15 15.001" data-original="#0055a3"/><path fill="#004281" d="M489.5 272.062h-25v114.062c0 20.021-16.23 36.25-36.25 36.25h-63.531v5c0 8.284 6.716 15 15 15H489.5c8.284 0 15-6.716 15-15V287.062c0-8.284-6.716-15-15-15" data-original="#004281"/><path fill="#f2fbff" d="m473.438 287.062-31.063 15.532-46.594-15.532V178.344l19.414 15.531 19.414-15.531 19.414 15.531 19.415-15.531z" data-original="#f2fbff"/><path fill="#dff6fd" d="m454.023 193.875-10.586-8.469v56.425c0 13.935-11.296 25.231-25.231 25.231h-22.425v20l46.594 15.531 31.062-15.531V178.344z" data-original="#dff6fd"/><path fill="#0055a3" d="M295.094 379.781H46.062a7.5 7.5 0 0 0-7.5 7.5v47.594a7.5 7.5 0 0 0 7.5 7.5h249.031a7.5 7.5 0 0 0 7.5-7.5v-47.594a7.5 7.5 0 0 0-7.499-7.5" data-original="#0055a3"/><path fill="#004281" d="M295.094 379.781h-32.5v17.415c0 13.906-11.273 25.178-25.179 25.178H38.562v12.5a7.5 7.5 0 0 0 7.5 7.5h249.031a7.5 7.5 0 0 0 7.5-7.5V387.28a7.5 7.5 0 0 0-7.499-7.499" data-original="#004281"/><path fill="#62dbfb" d="M457.438 349.188h-45.656c-8.837 0-16-7.163-16-16v-46.125h77.656v46.125c0 8.836-7.164 16-16 16" data-original="#62dbfb"/><path fill="#01d0fb" d="M443.438 287.062v26.125c0 8.837-7.163 16-16 16h-31.656v4c0 8.837 7.163 16 16 16h45.656c8.837 0 16-7.163 16-16v-46.125z" data-original="#01d0fb"/><path fill="none" stroke="#000" stroke-linecap="round" stroke-linejoin="round" stroke-miterlimit="10" stroke-width="15" d="M100.688 379.781h6.062c13.807 0 25-11.193 25-25v-21.125m77.656 0v21.125c0 13.807 11.193 25 25 25h6.062M256 163.09v-16.086a8.25 8.25 0 0 0-4.561-7.379l-11.774-5.887a72 72 0 0 0-5.169-12.469l4.165-12.494a8.25 8.25 0 0 0-1.993-8.442l-11.375-11.375a8.25 8.25 0 0 0-8.443-1.993l-12.494 4.165a72 72 0 0 0-12.469-5.169L186 74.185a8.25 8.25 0 0 0-7.379-4.56h-16.086a8.25 8.25 0 0 0-7.379 4.56l-5.887 11.774a72 72 0 0 0-12.469 5.169l-12.494-4.165a8.25 8.25 0 0 0-8.443 1.993l-11.375 11.375a8.25 8.25 0 0 0-1.993 8.443l4.165 12.494a72 72 0 0 0-5.169 12.469l-11.774 5.887a8.25 8.25 0 0 0-4.561 7.379v16.086a8.25 8.25 0 0 0 4.56 7.379l11.774 5.887a72 72 0 0 0 5.169 12.469l-4.165 12.494a8.25 8.25 0 0 0 1.993 8.443l11.375 11.375a8.25 8.25 0 0 0 8.443 1.993l12.494-4.165a72 72 0 0 0 12.469 5.169l5.887 11.774a8.25 8.25 0 0 0 7.379 4.56h16.086a8.25 8.25 0 0 0 7.379-4.561l5.887-11.774a72 72 0 0 0 12.469-5.169l12.494 4.165a8.25 8.25 0 0 0 8.443-1.993l11.375-11.375a8.25 8.25 0 0 0 1.993-8.443l-4.165-12.494a72 72 0 0 0 5.169-12.469l11.774-5.887A8.24 8.24 0 0 0 256 163.09m217.438 108.972H489.5c8.284 0 15 6.716 15 15v140.312c0 8.284-6.716 15-15 15H379.719c-8.284 0-15-6.716-15-15V287.062c0-8.284 6.716-15 15-15h16.062" data-original="#000000" style="stroke-width:15;stroke-linecap:round;stroke-linejoin:round;stroke-miterlimit:10"/><path fill="none" stroke="#000" stroke-linecap="round" stroke-linejoin="round" stroke-miterlimit="10" stroke-width="15" d="M457.438 349.188h-45.656c-8.837 0-16-7.163-16-16v-46.125h77.656v46.125c0 8.836-7.164 16-16 16M395.781 209.49v-31.146l19.414 15.531 19.414-15.531 19.414 15.531 19.415-15.531v108.718m-77.657 0V244.49m31.063-19.553h15.531M426.844 256h15.531m-46.594 155.312h77.657m-328.901-31.531H46.062a7.5 7.5 0 0 0-7.5 7.5v47.594a7.5 7.5 0 0 0 7.5 7.5h249.031a7.5 7.5 0 0 0 7.5-7.5v-47.594a7.5 7.5 0 0 0-7.5-7.5H180.537m14.643-246.674c0-10.528-8.535-19.062-19.062-19.062H165.04c-10.528 0-19.062 8.535-19.062 19.062v0c0 8.205 5.25 15.49 13.034 18.084l23.134 7.711a19.06 19.06 0 0 1 13.034 18.084v0c0 10.528-8.535 19.062-19.062 19.062H165.04c-10.528 0-19.062-8.535-19.062-19.062m24.6-73.192V206.3M131.75 411.312h62.125m31.063 0" data-original="#000000" style="stroke-width:15;stroke-linecap:round;stroke-linejoin:round;stroke-miterlimit:10"/><path fill="none" stroke="#000" stroke-linecap="round" stroke-linejoin="round" stroke-miterlimit="10" stroke-width="15" d="M102.135 131.75H38.562v170.844h264.032V131.75h-63.573" data-original="#000000" style="stroke-width:15;stroke-linecap:round;stroke-linejoin:round;stroke-miterlimit:10"/><path fill="none" stroke="#000" stroke-linecap="round" stroke-linejoin="round" stroke-miterlimit="10" stroke-width="15" d="M104.154 100.687H22.5c-8.284 0-15 6.716-15 15v202.969c0 8.284 6.716 15 15 15h296.156c8.284 0 15-6.716 15-15V115.687c0-8.284-6.716-15-15-15h-81.654" data-original="#000000" style="stroke-width:15;stroke-linecap:round;stroke-linejoin:round;stroke-miterlimit:10"/><path fill="none" stroke="#000" stroke-linecap="round" stroke-linejoin="round" stroke-miterlimit="10" stroke-width="15" d="M69.625 252.703v6.328c0 6.904 5.596 12.5 12.5 12.5h68.188c6.904 0 12.5-5.596 12.5-12.5v-18.563m-77.657-77.656h-3.031c-6.904 0-12.5 5.596-12.5 12.5v42.391m124.25 5.787v35.542c0 6.904 5.596 12.5 12.5 12.5h52.656c6.904 0 12.5-5.596 12.5-12.5v-37.125c0-6.904-5.596-12.5-12.5-12.5h-22.029" data-original="#000000" style="stroke-width:15;stroke-linecap:round;stroke-linejoin:round;stroke-miterlimit:10"/></svg>